<svg width="140" height="183" viewBox="0 0 140 183" fill="none" xmlns="http://www.w3.org/2000/svg">
<path d="M-32.323 153.149L4.61235 130.284C28.1862 115.69 39.5156 87.45 32.5647 60.6097V60.6097C24.9636 31.2593 39.2468 0.641451 66.6205 -12.3934L91.2632 -24.1278" stroke="#FBAF00" stroke-width="1.61185" stroke-linecap="round"/>
<path d="M-21.9634 160.581L14.972 137.715C38.5459 123.121 49.8752 94.8816 42.9243 68.0414V68.0414C35.3232 38.6909 49.6064 8.07311 76.9801 -4.96172L101.623 -16.6961" stroke="#FBAF00" stroke-width="1.61185" stroke-linecap="round"/>
<path d="M-11.604 168.013L25.3313 145.147C48.9052 130.553 60.2346 102.313 53.2837 75.4732V75.4732C45.6826 46.1227 59.9657 15.5049 87.3394 2.47006L111.982 -9.26432" stroke="#FBAF00" stroke-width="1.61185" stroke-linecap="round"/>
<path d="M-1.24487 175.444L35.6905 152.579C59.2644 137.985 70.5937 109.745 63.6428 82.905V82.905C56.0417 53.5545 70.3249 22.9367 97.6986 9.90184L122.341 -1.83254" stroke="#FBAF00" stroke-width="1.61185" stroke-linecap="round"/>
<path d="M9.1145 182.876L46.0498 160.01C69.6237 145.416 80.9531 117.177 74.0022 90.3367V90.3367C66.4011 60.9862 80.6843 30.3684 108.058 17.3335L132.701 5.59916" stroke="#FBAF00" stroke-width="1.61185" stroke-linecap="round"/>
<path d="M19.4736 190.308L56.409 167.442C79.9829 152.848 91.3122 124.609 84.3613 97.7684V97.7684C76.7602 68.418 91.0434 37.8001 118.417 24.7653L143.06 13.0309" stroke="#FBAF00" stroke-width="1.61185" stroke-linecap="round"/>
<path d="M29.833 197.74L66.7684 174.874C90.3422 160.28 101.672 132.04 94.7207 105.2V105.2C87.1196 75.8497 101.403 45.2319 128.776 32.1971L153.419 20.4627" stroke="#FBAF00" stroke-width="1.61185" stroke-linecap="round"/>
</svg>
